<?xml version="1.0" standalone="no"?>
<!DOCTYPE svg PUBLIC "-//W3C//DTD SVG 20010904//EN"
 "http://www.w3.org/TR/2001/REC-SVG-20010904/DTD/svg10.dtd">
<svg version="1.0" xmlns="http://www.w3.org/2000/svg"
 width="967.000000pt" height="768.000000pt" viewBox="0 0 967.000000 768.000000"
 preserveAspectRatio="xMidYMid meet">

<g transform="translate(0.000000,768.000000) scale(0.100000,-0.100000)"
fill="#000000" stroke="none">
<path d="M6785 7545 c-162 -29 -361 -104 -435 -164 -119 -96 -232 -216 -265
-281 -42 -83 -65 -161 -65 -220 0 -55 43 -303 66 -380 53 -180 173 -294 354
-334 92 -21 294 -39 343 -31 64 10 124 50 149 98 51 95 11 377 -111 782 -17
54 -29 101 -27 103 7 6 86 -208 120 -326 74 -255 101 -452 76 -544 -29 -102
-133 -177 -259 -186 -91 -6 -280 14 -360 39 -234 71 -364 264 -398 589 l-8 75
-6 -90 c-5 -71 -28 -169 -107 -455 -56 -201 -117 -430 -137 -510 -97 -390
-179 -552 -370 -725 -81 -74 -150 -165 -241 -315 -77 -130 -451 -555 -814
-925 -242 -248 -327 -353 -552 -685 -246 -364 -449 -693 -546 -886 -151 -300
-193 -459 -222 -829 -6 -77 -13 -153 -16 -168 -10 -50 -138 -228 -221 -308
-131 -126 -251 -196 -418 -241 -104 -28 -288 -32 -640 -14 -443 24 -868 31
-993 17 -236 -26 -380 -71 -517 -161 -52 -35 -95 -66 -95 -70 0 -13 111 -61
245 -106 219 -72 565 -133 930 -164 187 -15 711 -13 883 5 384 40 517 80 730
224 48 32 133 81 187 109 55 28 147 78 205 111 58 34 110 61 117 61 9 0 13
-16 13 -48 0 -169 100 -331 235 -381 131 -49 191 -56 490 -56 595 0 1398 17
1466 30 157 31 309 124 309 189 0 54 -74 164 -142 212 -108 77 -171 81 -590
35 -406 -44 -418 -45 -418 -31 0 31 71 141 125 195 81 81 140 111 245 125 217
28 313 83 327 187 5 38 2 43 -61 113 -36 41 -66 77 -66 82 0 5 18 35 40 67 48
70 89 157 97 207 4 24 -2 60 -17 109 -18 57 -21 81 -14 106 9 32 10 33 79 35
78 3 143 23 189 58 52 39 97 59 109 47 17 -17 18 -158 1 -239 -24 -110 -22
-181 4 -226 22 -37 22 -37 6 -174 -9 -75 -17 -189 -18 -254 -1 -114 0 -117 29
-159 54 -76 80 -84 318 -87 114 -2 207 -7 207 -11 0 -4 9 -59 21 -122 11 -63
29 -177 40 -253 33 -238 47 -251 279 -251 85 0 209 6 274 14 116 13 121 15
159 50 71 67 62 152 -28 249 -67 72 -137 112 -213 119 -67 7 -107 27 -121 62
-6 14 -18 100 -27 190 -18 188 -15 405 10 601 8 69 22 231 31 360 28 425 46
567 101 800 64 270 96 349 248 605 140 236 216 414 257 600 15 69 17 397 5
705 -7 172 -6 213 13 349 38 275 27 508 -39 862 -34 181 -32 225 14 304 56 94
91 108 321 130 99 9 207 23 240 32 90 22 172 70 247 144 53 53 70 78 82 120
19 63 20 102 5 132 -18 33 -28 37 -96 37 -64 0 -249 17 -293 26 -19 4 -9 10
50 30 213 72 340 193 397 379 14 48 18 90 17 215 -2 176 -9 210 -48 228 -32
16 -116 5 -468 -64 -324 -63 -392 -58 -498 32 -29 25 -69 52 -89 60 -98 42
-295 55 -436 29z m-575 -6210 c0 -136 -2 -165 -14 -165 -26 0 -41 99 -27 182
13 83 30 148 36 148 3 0 5 -74 5 -165z"/>
</g>
</svg>
